<svg version="1.1" xmlns="http://www.w3.org/2000/svg" viewBox="0 0 2854.5573725562754 1140.989540381612" width="8563.672117668826" height="3422.968621144836" filter="invert(93%) hue-rotate(180deg)">
  <!-- svg-source:excalidraw -->
  
  <defs>
    <style class="style-fonts">
      @font-face {
        font-family: "Virgil";
        src: url("https://unpkg.com/revedraw@1.0.0-alpha.10/dist/excalidraw-assets/Virgil.woff2");
      }
      @font-face {
        font-family: "Cascadia";
        src: url("https://unpkg.com/revedraw@1.0.0-alpha.10/dist/excalidraw-assets/Cascadia.woff2");
      }
    </style>
    
  </defs>
  <g transform="translate(948.6214124490086 344.0159577793039) rotate(0 74.16000366210938 22.5)"><text x="0" y="0" font-family="HanziPen SC, HanziPen Remote, Virgil, KaiTi, Segoe UI Emoji" font-size="36px" fill="#1e1e1e" text-anchor="start" style="white-space: pre;" direction="ltr" dominant-baseline="text-before-edge">设置表格</text></g><g stroke-linecap="round"><g transform="translate(1228.8831311990084 355.6517391274533) rotate(0 84.38228085132914 -46.50544134944954)"><path d="M-0.03 0.81 C5.87 -12.28, 7.11 -63.52, 35.25 -79.29 C63.39 -95.06, 146.38 -91.31, 168.79 -93.82" stroke="#1e1e1e" stroke-width="1.5" fill="none" stroke-dasharray="8 9"></path></g><g transform="translate(1228.8831311990084 355.6517391274533) rotate(0 84.38228085132914 -46.50544134944954)"><path d="M142.37 -83.59 C148.64 -85.52, 157.17 -87.15, 168.05 -92.43" stroke="#1e1e1e" stroke-width="1.5" fill="none"></path></g><g transform="translate(1228.8831311990084 355.6517391274533) rotate(0 84.38228085132914 -46.50544134944954)"><path d="M141.59 -104.1 C147.96 -100.16, 156.72 -95.93, 168.05 -92.43" stroke="#1e1e1e" stroke-width="1.5" fill="none"></path></g></g><mask></mask><g stroke-linecap="round" transform="translate(1402.9729749490084 162.86752027930387) rotate(0 103.1484375 100)"><path d="M130 25.25 M130 25.25 C149.73 43.03, 167.25 61.75, 180.3 75.75 M180.3 75.75 C205.39 100.24, 207.93 100.61, 180.3 126.25 M180.3 126.25 C168.18 136.06, 156.91 149.31, 130 174.75 M130 174.75 C105.17 201.05, 105.5 198.23, 78 174.75 M78 174.75 C68.61 164.05, 55.73 154.85, 26 126.25 M26 126.25 C0.07 100.34, -0.16 101.09, 26 75.75 M26 75.75 C42.89 59.36, 62.04 38.87, 78 25.25 M78 25.25 C105.5 -0.75, 105.97 -1.76, 130 25.25" stroke="#1e1e1e" stroke-width="1.5" fill="none" stroke-dasharray="8 9"></path></g><g transform="translate(1468.9671918679537 217.86752027930387) rotate(0 37.08000183105469 45)"><text x="37.08000183105469" y="0" font-family="HanziPen SC, HanziPen Remote, Virgil, KaiTi, Segoe UI Emoji" font-size="36px" fill="#1e1e1e" text-anchor="middle" style="white-space: pre;" direction="ltr" dominant-baseline="text-before-edge">设置</text><text x="37.08000183105469" y="45" font-family="HanziPen SC, HanziPen Remote, Virgil, KaiTi, Segoe UI Emoji" font-size="36px" fill="#1e1e1e" text-anchor="middle" style="white-space: pre;" direction="ltr" dominant-baseline="text-before-edge">表头</text></g><g stroke-linecap="round"><g transform="translate(1229.0784436990084 366.01861237466403) rotate(0 90.91362664979158 65.89720058060888)"><path d="M0.48 1.11 C3.31 17.08, -13.22 74.89, 17.25 96.48 C47.73 118.08, 155.78 124.89, 183.33 130.68" stroke="#1e1e1e" stroke-width="1.5" fill="none" stroke-dasharray="8 9"></path></g><g transform="translate(1229.0784436990084 366.01861237466403) rotate(0 90.91362664979158 65.89720058060888)"><path d="M155.85 135.2 C164.03 134.44, 171.41 131.12, 182.61 129.52" stroke="#1e1e1e" stroke-width="1.5" fill="none"></path></g><g transform="translate(1229.0784436990084 366.01861237466403) rotate(0 90.91362664979158 65.89720058060888)"><path d="M158.67 114.88 C166.04 120.75, 172.51 124.04, 182.61 129.52" stroke="#1e1e1e" stroke-width="1.5" fill="none"></path></g></g><mask></mask><g stroke-linecap="round" transform="translate(1413.6448499490084 395.0667390293039) rotate(0 105.5 116)"><path d="M132.5 29.25 M132.5 29.25 C145.26 40.86, 157.29 57.92, 184.5 87.75 M184.5 87.75 C210.8 118.32, 211.87 118.63, 184.5 146.25 M184.5 146.25 C167.42 167.93, 146.3 187.36, 132.5 202.75 M132.5 202.75 C105.87 233.4, 106.53 230.8, 79.5 202.75 M79.5 202.75 C65.44 186.54, 51.18 172.46, 26.5 146.25 M26.5 146.25 C-1.94 115.15, -0.98 118.31, 26.5 87.75 M26.5 87.75 C48.28 63.68, 68.85 41.17, 79.5 29.25 M79.5 29.25 C104.46 -1.57, 107.08 -0.12, 132.5 29.25" stroke="#1e1e1e" stroke-width="1.5" fill="none" stroke-dasharray="8 9"></path></g><g transform="translate(1482.3148481179537 466.0667390293039) rotate(0 37.08000183105469 45)"><text x="37.08000183105469" y="0" font-family="HanziPen SC, HanziPen Remote, Virgil, KaiTi, Segoe UI Emoji" font-size="36px" fill="#1e1e1e" text-anchor="middle" style="white-space: pre;" direction="ltr" dominant-baseline="text-before-edge">设置</text><text x="37.08000183105469" y="45" font-family="HanziPen SC, HanziPen Remote, Virgil, KaiTi, Segoe UI Emoji" font-size="36px" fill="#1e1e1e" text-anchor="middle" style="white-space: pre;" direction="ltr" dominant-baseline="text-before-edge">内容</text></g><g stroke-linecap="round" transform="translate(844.2307874490086 263.1448640293039) rotate(0 184.146484375 104.744140625)"><path d="M32 0 M32 0 C110.05 -2.17, 184.93 -3.77, 336.29 0 M336.29 0 C357.67 2.81, 368.06 13.82, 368.29 32 M368.29 32 C369.21 83.64, 370.84 137.02, 368.29 177.49 M368.29 177.49 C369.03 195.92, 357.94 207.7, 336.29 209.49 M336.29 209.49 C267.73 207.87, 202.47 208.33, 32 209.49 M32 209.49 C9.42 210.36, 0.58 196.82, 0 177.49 M0 177.49 C-3.74 118.57, -0.65 63.16, 0 32 M0 32 C-0.08 11.91, 11.02 1.34, 32 0" stroke="#1e1e1e" stroke-width="4.5" fill="none" stroke-dasharray="8 12"></path></g><g stroke-linecap="round"><g transform="translate(1030.6331311990086 492.0276765293039) rotate(0 -1.1005741278681853 83.12414055839179)"><path d="M-1.76 -1.86 C-1.94 26.21, -0.62 139.74, -0.42 168.11" stroke="#1e1e1e" stroke-width="1.5" fill="none" stroke-dasharray="8 9"></path></g><g transform="translate(1030.6331311990086 492.0276765293039) rotate(0 -1.1005741278681853 83.12414055839179)"><path d="M-13.6 140.05 C-4.8 148.99, -1.05 161.06, -2.12 168.87" stroke="#1e1e1e" stroke-width="1.5" fill="none"></path></g><g transform="translate(1030.6331311990086 492.0276765293039) rotate(0 -1.1005741278681853 83.12414055839179)"><path d="M6.92 139.86 C9.09 148.61, 6.21 160.74, -2.12 168.87" stroke="#1e1e1e" stroke-width="1.5" fill="none"></path></g></g><mask></mask><g stroke-linecap="round" transform="translate(786.7503186990086 671.8518952793039) rotate(0 240.68359375 96.236328125)"><path d="M301.25 24.25 M301.25 24.25 C331.03 32.82, 359.34 48.05, 421.12 72.75 M421.12 72.75 C479.51 96.92, 482.61 97.35, 421.12 121.25 M421.12 121.25 C384.18 138.64, 340.4 152.05, 301.25 168.22 M301.25 168.22 C243.6 194.38, 242.3 194.63, 180.75 168.22 M180.75 168.22 C143.58 156.21, 112.86 144.44, 60.25 121.25 M60.25 121.25 C0.29 96.95, -1.1 99.82, 60.25 72.75 M60.25 72.75 C104.08 49.7, 150.49 35.09, 180.75 24.25 M180.75 24.25 C240.27 -2.93, 237.1 2.96, 301.25 24.25" stroke="#1e1e1e" stroke-width="1.5" fill="none" stroke-dasharray="8 9"></path></g><g transform="translate(903.3089124490086 744.5706452793039) rotate(0 129.77999877929688 22.5)"><text x="0" y="0" font-family="HanziPen SC, HanziPen Remote, Virgil, KaiTi, Segoe UI Emoji" font-size="36px" fill="#1e1e1e" text-anchor="start" style="white-space: pre;" direction="ltr" dominant-baseline="text-before-edge">与图表进行关联</text></g><g stroke-linecap="round"><g transform="translate(823.2346936990086 359.2698640293039) rotate(0 -83.06379894241695 -4.101249406486744)"><path d="M-2.04 -1.42 C-29.12 -2.44, -137.13 -6.43, -164.09 -6.78" stroke="#1e1e1e" stroke-width="1.5" fill="none" stroke-dasharray="8 9"></path></g><g transform="translate(823.2346936990086 359.2698640293039) rotate(0 -83.06379894241695 -4.101249406486744)"><path d="M-137.66 -19.49 C-143.24 -17.21, -145.56 -12.31, -162.38 -6.24" stroke="#1e1e1e" stroke-width="1.5" fill="none"></path></g><g transform="translate(823.2346936990086 359.2698640293039) rotate(0 -83.06379894241695 -4.101249406486744)"><path d="M-138.21 1.02 C-143.57 -1.69, -145.75 -1.78, -162.38 -6.24" stroke="#1e1e1e" stroke-width="1.5" fill="none"></path></g></g><mask></mask><g stroke-linecap="round" transform="translate(508.78938119900863 286.4729890293039) rotate(0 72.619140625 71.95703125)"><path d="M74.29 -0.31 C84.22 -1.12, 97.7 1.7, 107.47 6.57 C117.24 11.44, 126.72 20.26, 132.92 28.93 C139.11 37.6, 142.81 48.43, 144.67 58.59 C146.52 68.74, 146.7 79.94, 144.04 89.87 C141.39 99.8, 135.85 110.05, 128.76 118.16 C121.67 126.28, 111.31 134.2, 101.52 138.55 C91.73 142.9, 80.52 144.55, 70.04 144.27 C59.56 143.99, 47.71 141.62, 38.66 136.87 C29.61 132.12, 22 124.69, 15.72 115.78 C9.44 106.87, 3.38 93.76, 0.96 83.4 C-1.45 73.05, -1.71 63.52, 1.2 53.65 C4.11 43.77, 11.54 32.36, 18.42 24.15 C25.3 15.95, 26.5 6.38, 42.47 4.41 C58.43 2.43, 98.55 5.65, 114.23 12.3 C129.9 18.95, 137.16 43.37, 136.51 44.29" stroke="#1e1e1e" stroke-width="1.5" fill="none" stroke-dasharray="8 9"></path></g><g transform="translate(544.479033213077 313.54871552837653) rotate(0 37.08000183105469 45)"><text x="37.08000183105469" y="0" font-family="HanziPen SC, HanziPen Remote, Virgil, KaiTi, Segoe UI Emoji" font-size="36px" fill="#1e1e1e" text-anchor="middle" style="white-space: pre;" direction="ltr" dominant-baseline="text-before-edge">其他</text><text x="37.08000183105469" y="45" font-family="HanziPen SC, HanziPen Remote, Virgil, KaiTi, Segoe UI Emoji" font-size="36px" fill="#1e1e1e" text-anchor="middle" style="white-space: pre;" direction="ltr" dominant-baseline="text-before-edge">设置</text></g><g stroke-linecap="round"><g transform="translate(1613.3596936990086 264.9222077793039) rotate(0 78.63179418817163 -71.734227142483)"><path d="M1.59 1.03 C6.47 -12.88, 3.78 -56.73, 29.46 -80.99 C55.14 -105.24, 134.63 -134.07, 155.67 -144.5" stroke="#1e1e1e" stroke-width="1.5" fill="none" stroke-dasharray="8 9"></path></g><g transform="translate(1613.3596936990086 264.9222077793039) rotate(0 78.63179418817163 -71.734227142483)"><path d="M135.36 -120.46 C136.68 -132.18, 147.04 -138.42, 157.23 -143.13" stroke="#1e1e1e" stroke-width="1.5" fill="none"></path></g><g transform="translate(1613.3596936990086 264.9222077793039) rotate(0 78.63179418817163 -71.734227142483)"><path d="M127.2 -139.29 C131.35 -145.34, 144.2 -145.82, 157.23 -143.13" stroke="#1e1e1e" stroke-width="1.5" fill="none"></path></g></g><mask></mask><g stroke-linecap="round" transform="translate(1775.4378186990086 70.66048902930387) rotate(0 126.171875 59.166015625)"><path d="M50.32 11.04 C61.14 6.19, 78.03 4.4, 93.4 2.5 C108.77 0.6, 126.53 -1.1, 142.52 -0.37 C158.51 0.36, 175.1 2.64, 189.34 6.88 C203.58 11.12, 217.95 18.85, 227.98 25.08 C238.01 31.3, 245.48 37, 249.51 44.23 C253.54 51.47, 254.54 60.98, 252.16 68.49 C249.77 76, 243.82 82.95, 235.19 89.27 C226.56 95.59, 213.41 101.74, 200.36 106.4 C187.31 111.07, 171.93 115.37, 156.89 117.27 C141.84 119.18, 125.95 118.8, 110.1 117.83 C94.24 116.86, 75.72 115.5, 61.75 111.47 C47.79 107.44, 36.07 100.17, 26.31 93.66 C16.55 87.15, 7.36 79.26, 3.2 72.42 C-0.96 65.57, -0.8 59.99, 1.34 52.57 C3.48 45.14, 4.35 35.46, 16.05 27.88 C27.74 20.3, 58.62 11.48, 71.52 7.09 C84.42 2.7, 92.7 1.12, 93.45 1.55" stroke="#1e1e1e" stroke-width="1.5" fill="none" stroke-dasharray="8 9"></path></g><g transform="translate(1808.6604749490086 113.70345777930387) rotate(0 92.69995880126953 12.5)"><text x="0" y="0" font-family="HanziPen SC, HanziPen Remote, Virgil, KaiTi, Segoe UI Emoji" font-size="20px" fill="#1e1e1e" text-anchor="start" style="white-space: pre;" direction="ltr" dominant-baseline="text-before-edge">以列的方式进行存储</text></g><g stroke-linecap="round"><g transform="translate(2033.0166715030625 131.76781159869358) rotate(0 74.59090844942511 0.061099969773505514)"><path d="M-0.6 0.27 C24.63 0.57, 124.96 0.26, 149.78 -0.27" stroke="#1e1e1e" stroke-width="1.5" fill="none" stroke-dasharray="8 9"></path></g></g><mask></mask><g stroke-linecap="round" transform="translate(2179.536904308281 10) rotate(0 295.5295674271281 120.78142198655885)"><path d="M32 0 M32 0 C145.07 -0.83, 257.18 -1.41, 559.06 0 M559.06 0 C583.99 2.42, 590.59 8.71, 591.06 32 M591.06 32 C591.59 78.11, 591.39 130.76, 591.06 209.56 M591.06 209.56 C587.52 228.56, 582.49 242.56, 559.06 241.56 M559.06 241.56 C448.02 244.06, 337.43 242.87, 32 241.56 M32 241.56 C13.79 238.92, -2.79 232.22, 0 209.56 M0 209.56 C1.96 156.6, -2.25 104.84, 0 32 M0 32 C1.52 8.26, 14.6 -2.45, 32 0" stroke="#1e1e1e" stroke-width="1.5" fill="none" stroke-dasharray="8 9"></path></g><g transform="translate(2218.29241697164 46.61888684244235) rotate(0 267.79986572265625 75)"><text x="0" y="0" font-family="HanziPen SC, HanziPen Remote, Virgil, KaiTi, Segoe UI Emoji" font-size="20px" fill="#1e1e1e" text-anchor="start" style="white-space: pre;" direction="ltr" dominant-baseline="text-before-edge">举例：</text><text x="0" y="25" font-family="HanziPen SC, HanziPen Remote, Virgil, KaiTi, Segoe UI Emoji" font-size="20px" fill="#1e1e1e" text-anchor="start" style="white-space: pre;" direction="ltr" dominant-baseline="text-before-edge">      我们假设表头设置为「名称｜内容」。</text><text x="0" y="50" font-family="HanziPen SC, HanziPen Remote, Virgil, KaiTi, Segoe UI Emoji" font-size="20px" fill="#1e1e1e" text-anchor="start" style="white-space: pre;" direction="ltr" dominant-baseline="text-before-edge">我们就可以将名称和内容进行拆分，</text><text x="0" y="75" font-family="HanziPen SC, HanziPen Remote, Virgil, KaiTi, Segoe UI Emoji" font-size="20px" fill="#1e1e1e" text-anchor="start" style="white-space: pre;" direction="ltr" dominant-baseline="text-before-edge">分为两列，我们可以存储为</text><text x="0" y="100" font-family="HanziPen SC, HanziPen Remote, Virgil, KaiTi, Segoe UI Emoji" font-size="20px" fill="#1e1e1e" text-anchor="start" style="white-space: pre;" direction="ltr" dominant-baseline="text-before-edge">「名称｜文本类型｜限制长度｜显示在第几列｜没有后缀」</text><text x="0" y="125" font-family="HanziPen SC, HanziPen Remote, Virgil, KaiTi, Segoe UI Emoji" font-size="20px" fill="#1e1e1e" text-anchor="start" style="white-space: pre;" direction="ltr" dominant-baseline="text-before-edge">「内容｜数值类型｜限制长度｜显示在第几列｜后缀为%」</text></g><g stroke-linecap="round"><g transform="translate(1617.7065825792395 268.53355917344174) rotate(0 86.52617196525648 45.30518736277783)"><path d="M1.98 -0.36 C8.61 12.7, 14.01 62.75, 42.19 77.97 C70.38 93.19, 149.38 88.51, 171.08 90.97" stroke="#1e1e1e" stroke-width="1.5" fill="none" stroke-dasharray="8 9"></path></g><g transform="translate(1617.7065825792395 268.53355917344174) rotate(0 86.52617196525648 45.30518736277783)"><path d="M142.06 104.16 C153.1 94.15, 160.88 92.36, 169.9 93.23" stroke="#1e1e1e" stroke-width="1.5" fill="none"></path></g><g transform="translate(1617.7065825792395 268.53355917344174) rotate(0 86.52617196525648 45.30518736277783)"><path d="M142.71 83.65 C153.45 81.55, 160.97 87.65, 169.9 93.23" stroke="#1e1e1e" stroke-width="1.5" fill="none"></path></g></g><mask></mask><g stroke-linecap="round" transform="translate(1797.635717546729 286.0148085351967) rotate(0 138 66.5)"><path d="M143.17 -1.81 C159.29 -2.24, 177.74 4.04, 192.94 7.16 C208.13 10.27, 222.71 11.55, 234.33 16.88 C245.95 22.21, 255.64 31.86, 262.65 39.12 C269.67 46.39, 275.1 52.31, 276.42 60.47 C277.74 68.63, 275.76 80.25, 270.56 88.1 C265.36 95.95, 255.92 101.48, 245.22 107.56 C234.51 113.64, 220.91 120.7, 206.33 124.59 C191.75 128.48, 173.93 130.04, 157.74 130.92 C141.54 131.8, 125.46 131.37, 109.17 129.88 C92.88 128.39, 73.7 125.93, 59.98 121.99 C46.25 118.05, 36.24 113.02, 26.81 106.25 C17.39 99.49, 7.79 89.29, 3.43 81.42 C-0.93 73.55, -1.21 66.53, 0.65 59.01 C2.5 51.49, 6.81 43.26, 14.55 36.29 C22.29 29.33, 34.35 22.38, 47.09 17.24 C59.82 12.09, 65.38 6.94, 90.98 5.43 C116.58 3.92, 174.96 4.54, 200.67 8.16 C226.38 11.79, 246.36 26.41, 245.22 27.17" stroke="#1e1e1e" stroke-width="1.5" fill="none" stroke-dasharray="8 9"></path></g><g transform="translate(1843.0549817429853 314.99220758629133) rotate(0 82.39996337890625 37.499999999999986)"><text x="0" y="0" font-family="HanziPen SC, HanziPen Remote, Virgil, KaiTi, Segoe UI Emoji" font-size="20px" fill="#1e1e1e" text-anchor="start" style="white-space: pre;" direction="ltr" dominant-baseline="text-before-edge">扩展：</text><text x="0" y="25" font-family="HanziPen SC, HanziPen Remote, Virgil, KaiTi, Segoe UI Emoji" font-size="20px" fill="#1e1e1e" text-anchor="start" style="white-space: pre;" direction="ltr" dominant-baseline="text-before-edge">可以将更多的配置</text><text x="0" y="50" font-family="HanziPen SC, HanziPen Remote, Virgil, KaiTi, Segoe UI Emoji" font-size="20px" fill="#1e1e1e" text-anchor="start" style="white-space: pre;" direction="ltr" dominant-baseline="text-before-edge">与表头进行关联</text></g><g stroke-linecap="round"><g transform="translate(2077.8496822006346 362.5944755785101) rotate(0 76.22105663661682 46.757721242873245)"><path d="M1.43 2.21 C10.08 13.62, 29.5 51.53, 54.43 66.38 C79.36 81.23, 135.1 86.85, 151.01 91.31" stroke="#1e1e1e" stroke-width="1.5" fill="none" stroke-dasharray="8 9"></path></g></g><mask></mask><g stroke-linecap="round" transform="translate(2235.3547537591394 373.46418918334723) rotate(0 304.601309398568 77.7300372334775)"><path d="M32 0 M32 0 C222.79 1.16, 412.04 2.53, 577.2 0 M577.2 0 C597.92 0.88, 606.77 12.4, 609.2 32 M609.2 32 C604.83 70.44, 609.2 104.26, 609.2 123.46 M609.2 123.46 C605.42 143.44, 597.07 151.75, 577.2 155.46 M577.2 155.46 C411 160.03, 245.91 159.4, 32 155.46 M32 155.46 C7.58 159.34, 2.07 142.61, 0 123.46 M0 123.46 C-0.11 88.31, -2.63 62.98, 0 32 M0 32 C-1.68 12.28, 9.45 3.95, 32 0" stroke="#1e1e1e" stroke-width="1.5" fill="none" stroke-dasharray="8 9"></path></g><g transform="translate(2259.819164777996 396.57870064423537) rotate(0 284.89984130859375 50)"><text x="0" y="0" font-family="HanziPen SC, HanziPen Remote, Virgil, KaiTi, Segoe UI Emoji" font-size="20px" fill="#1e1e1e" text-anchor="start" style="white-space: pre;" direction="ltr" dominant-baseline="text-before-edge">举例：</text><text x="0" y="25" font-family="HanziPen SC, HanziPen Remote, Virgil, KaiTi, Segoe UI Emoji" font-size="20px" fill="#1e1e1e" text-anchor="start" style="white-space: pre;" direction="ltr" dominant-baseline="text-before-edge">      我们可以将「是否显示(或者其他的配置)」进行列的存储，</text><text x="0" y="50" font-family="HanziPen SC, HanziPen Remote, Virgil, KaiTi, Segoe UI Emoji" font-size="20px" fill="#1e1e1e" text-anchor="start" style="white-space: pre;" direction="ltr" dominant-baseline="text-before-edge">可以设置为</text><text x="0" y="75" font-family="HanziPen SC, HanziPen Remote, Virgil, KaiTi, Segoe UI Emoji" font-size="20px" fill="#1e1e1e" text-anchor="start" style="white-space: pre;" direction="ltr" dominant-baseline="text-before-edge">「是否显示｜布尔类型｜(true/false) 」</text></g><g stroke-linecap="round"><g transform="translate(499.6105844506835 364.85606103197233) rotate(0 -75.18512678145851 -1.5077922720603425)"><path d="M-0.24 -1.64 C-25.56 -1.6, -125.35 -1.25, -150.13 -1.43" stroke="#1e1e1e" stroke-width="1.5" fill="none" stroke-dasharray="8 9"></path></g></g><mask></mask><g stroke-linecap="round" transform="translate(10 310.4873452531908) rotate(0 171.69160926379806 53.30088478516453)"><path d="M26.65 0 M26.65 0 C104.36 -1.32, 189.59 -4.71, 316.73 0 M316.73 0 C334.26 -1.33, 342.94 8.51, 343.38 26.65 M343.38 26.65 C341.18 43.98, 340.59 56.43, 343.38 79.95 M343.38 79.95 C340.11 94.49, 332.9 103.74, 316.73 106.6 M316.73 106.6 C208.65 112.26, 97.49 107.24, 26.65 106.6 M26.65 106.6 C7.96 108.21, 3.11 98.63, 0 79.95 M0 79.95 C-0.77 68.36, 3.51 54.57, 0 26.65 M0 26.65 C2.24 12.01, 5.47 0.13, 26.65 0" stroke="#1e1e1e" stroke-width="1.5" fill="none" stroke-dasharray="8 9"></path></g><g transform="translate(36.856956877196694 329.59245354936627) rotate(0 123.59994506835938 37.5)"><text x="0" y="0" font-family="HanziPen SC, HanziPen Remote, Virgil, KaiTi, Segoe UI Emoji" font-size="20px" fill="#1e1e1e" text-anchor="start" style="white-space: pre;" direction="ltr" dominant-baseline="text-before-edge">根据业务进行调整和配置，</text><text x="0" y="25" font-family="HanziPen SC, HanziPen Remote, Virgil, KaiTi, Segoe UI Emoji" font-size="20px" fill="#1e1e1e" text-anchor="start" style="white-space: pre;" direction="ltr" dominant-baseline="text-before-edge">无需改动代码。</text><text x="0" y="50" font-family="HanziPen SC, HanziPen Remote, Virgil, KaiTi, Segoe UI Emoji" font-size="20px" fill="#1e1e1e" text-anchor="start" style="white-space: pre;" direction="ltr" dominant-baseline="text-before-edge">只需要增加配置项即可</text></g><g stroke-linecap="round"><g transform="translate(1636.049719407554 517.636484137587) rotate(0 86.26210529568357 56.865103144280994)"><path d="M0.19 -2.57 C17.31 14.98, 75.87 87.76, 104.57 106.69 C133.26 125.62, 161.16 110.69, 172.34 111.01" stroke="#1e1e1e" stroke-width="1.5" fill="none" stroke-dasharray="8 9"></path></g><g transform="translate(1636.049719407554 517.636484137587) rotate(0 86.26210529568357 56.865103144280994)"><path d="M142.69 128.14 C154.72 122.87, 167.61 116.4, 171.34 110.06" stroke="#1e1e1e" stroke-width="1.5" fill="none"></path></g><g transform="translate(1636.049719407554 517.636484137587) rotate(0 86.26210529568357 56.865103144280994)"><path d="M139.12 107.94 C152.66 110.05, 166.85 110.99, 171.34 110.06" stroke="#1e1e1e" stroke-width="1.5" fill="none"></path></g></g><mask></mask><g stroke-linecap="round" transform="translate(1813.5564743417806 619.5387899482715) rotate(0 297.3053037652935 71.88970686980358)"><path d="M32 0 M32 0 C160.2 3.51, 290.75 2.65, 562.61 0 M562.61 0 C583.58 -2.4, 592.88 7.48, 594.61 32 M594.61 32 C597.64 44.57, 593.92 64.25, 594.61 111.78 M594.61 111.78 C597.6 132.15, 580.47 140.39, 562.61 143.78 M562.61 143.78 C372.55 145.29, 179.54 148.04, 32 143.78 M32 143.78 C7.24 144.93, 3.86 133.86, 0 111.78 M0 111.78 C1.82 94.02, 2.34 74.04, 0 32 M0 32 C-0.27 10.64, 6.85 -0.03, 32 0" stroke="#1e1e1e" stroke-width="1.5" fill="none" stroke-dasharray="8 9"></path></g><g transform="translate(1846.825454119328 647.9420869907534) rotate(0 257.49981689453125 50)"><text x="0" y="0" font-family="HanziPen SC, HanziPen Remote, Virgil, KaiTi, Segoe UI Emoji" font-size="20px" fill="#1e1e1e" text-anchor="start" style="white-space: pre;" direction="ltr" dominant-baseline="text-before-edge">将内容也按照列的方式进行存储，</text><text x="0" y="25" font-family="HanziPen SC, HanziPen Remote, Virgil, KaiTi, Segoe UI Emoji" font-size="20px" fill="#1e1e1e" text-anchor="start" style="white-space: pre;" direction="ltr" dominant-baseline="text-before-edge">这样我们就可以将内容与表头进行绑定。</text><text x="0" y="50" font-family="HanziPen SC, HanziPen Remote, Virgil, KaiTi, Segoe UI Emoji" font-size="20px" fill="#1e1e1e" text-anchor="start" style="white-space: pre;" direction="ltr" dominant-baseline="text-before-edge">在查询的时候我们就可以根据表头查询到所需要的内容。</text><text x="0" y="75" font-family="HanziPen SC, HanziPen Remote, Virgil, KaiTi, Segoe UI Emoji" font-size="20px" fill="#1e1e1e" text-anchor="start" style="white-space: pre;" direction="ltr" dominant-baseline="text-before-edge">这样我们就将这个插件模式的核心逻辑完善。</text></g><g stroke-linecap="round"><g transform="translate(1024.6918079987338 863.4884051843783) rotate(0 -4.172295020023853 75.58198227484331)"><path d="M2.32 1.63 C0.59 26.67, -8.78 125.36, -10.66 149.54" stroke="#1e1e1e" stroke-width="1.5" fill="none" stroke-dasharray="8 9"></path></g><g transform="translate(1024.6918079987338 863.4884051843783) rotate(0 -4.172295020023853 75.58198227484331)"><path d="M-16.11 119.79 C-13.5 130.48, -15.35 134.68, -11.44 146.44" stroke="#1e1e1e" stroke-width="1.5" fill="none"></path></g><g transform="translate(1024.6918079987338 863.4884051843783) rotate(0 -4.172295020023853 75.58198227484331)"><path d="M4.34 121.58 C1.02 132.08, -6.77 135.77, -11.44 146.44" stroke="#1e1e1e" stroke-width="1.5" fill="none"></path></g></g><mask></mask><g stroke-linecap="round" transform="translate(735.2184267027012 1014.9737324760466) rotate(0 287.5563090098897 58.007903952782726)"><path d="M29 0 M29 0 C172.88 -0.21, 316.51 1.23, 546.11 0 M546.11 0 C563.2 -0.74, 571.12 7.15, 575.11 29 M575.11 29 C574.55 43.29, 572.3 61.78, 575.11 87.01 M575.11 87.01 C571.28 105.57, 564.35 118.79, 546.11 116.02 M546.11 116.02 C348.13 118.09, 150.28 118.25, 29 116.02 M29 116.02 C7.74 118.49, -2.07 106.53, 0 87.01 M0 87.01 C2.9 71.75, -0.69 50.43, 0 29 M0 29 C1.78 9.44, 7.31 2.56, 29 0" stroke="#1e1e1e" stroke-width="1.5" fill="none" stroke-dasharray="8 9"></path></g><g transform="translate(773.9978173624047 1052.8313633629577) rotate(0 247.19981384277344 25)"><text x="0" y="0" font-family="HanziPen SC, HanziPen Remote, Virgil, KaiTi, Segoe UI Emoji" font-size="20px" fill="#1e1e1e" text-anchor="start" style="white-space: pre;" direction="ltr" dominant-baseline="text-before-edge">与图表进行联动需要收集到大量的用户体验报告。</text><text x="0" y="25" font-family="HanziPen SC, HanziPen Remote, Virgil, KaiTi, Segoe UI Emoji" font-size="20px" fill="#1e1e1e" text-anchor="start" style="white-space: pre;" direction="ltr" dominant-baseline="text-before-edge">同时我们也可以设置更多的选项进行图表的渲染方案。</text></g></svg>